#!OML:ASF H:\Terrain\Patient Classification 1\PLAYGROUND\JustinFriday\JustinFriday.ASF
:FULLY-SPECIFIED
:DEGREES
409
root -12.3553 18.94 10.6909 75.7094 -85.1181 -128.394
lowerback 18.2575 -2.21283 -0.606042
upperback -3.13109 -2.74624 3.23832
thorax -13.6452 -1.07168 4.81288
lowerneck 21.396 -7.27877 -19.5518
upperneck 13.3731 -15.4322 -0.100164
head 2.37872 -9.28305 3.32301
rclavicle -1.03368e-014 2.38542e-015
rhumerus 42.0204 5.97353 -67.9906
rradius 97.8838
rwrist 11.8699
rhand 1.7366 -27.5836
rfingers 7.12502
rthumb 27.2527 -55.6346
lclavicle -1.03368e-014 2.38542e-015
lhumerus 35.8548 1.89355 67.2066
lradius 99.0021
lwrist -18.9519
lhand 13.6021 0.815673
lfingers 7.12502
lthumb 38.5342 26.4675
rfemur -11.4787 -8.53239 22.1988
rtibia 77.0528
rfoot 2.23797 -5.79512
rtoes 9.94624
lfemur -5.40881 8.12816 -5.49422
ltibia 79.5678
lfoot 1.40321 -2.7142
ltoes 3.85971
410
root -12.2546 18.8812 10.6878 76.8663 -84.9159 -129.004
lowerback 18.281 -2.21064 -0.373414
upperback -3.09434 -2.68954 3.24314
thorax -13.6315 -1.06511 4.66853
lowerneck 20.8678 -7.75413 -19.2056
upperneck 13.4543 -15.8103 -0.605718
head 2.44606 -9.4442 3.08908
rclavicle 3.73715e-014 -4.05521e-014
rhumerus 42.477 5.73335 -68.9142
rradius 97.3669
rwrist 12.4598
rhand 2.086 -26.7119
rfingers 7.12502
rthumb 27.5868 -54.7099
lclavicle 3.73715e-014 -4.05521e-014
lhumerus 36.2659 2.05038 67.0266
lradius 98.8189
lwrist -18.9041
lhand 14.8085 -2.115
lfingers 7.12502
lthumb 39.6714 23.2094
rfemur -11.3166 -8.69249 22.4387
rtibia 77.3153
rfoot 2.2145 -5.6145
rtoes 6.31177
lfemur -5.14143 8.2651 -5.05283
ltibia 79.7667
lfoot 0.809706 -2.89487
ltoes 3.22622
411
root -12.1503 18.8207 10.6828 76.8 -84.964 -128.316
lowerback 18.2881 -2.33049 -0.509964
upperback -3.12784 -2.89133 3.15261
thorax -13.6567 -1.15007 4.70475
lowerneck 20.9195 -7.97033 -18.7559
upperneck 12.7946 -15.9683 -0.726507
head 2.19741 -9.43182 3.02384
rclavicle 4.05521e-014 -4.77083e-015
rhumerus 42.8212 5.92707 -69.2656
rradius 97.3252
rwrist 12.7821
rhand 2.19275 -26.4934
rfingers 7.12502
rthumb 27.6889 -54.4751
lclavicle 4.05521e-014 -4.77083e-015
lhumerus 36.423 2.498 66.4665
lradius 98.7172
lwrist -18.8243
lhand 13.091 -0.898698
lfingers 7.12502
lthumb 38.0518 24.8864
rfemur -11.2358 -8.64672 22.4351
rtibia 77.5672
rfoot 1.79723 -5.7535
rtoes 5.79092
lfemur -4.91866 8.39908 -4.96833
ltibia 79.9811
lfoot 0.175461 -2.79171
ltoes 2.44887
412
root -12.0409 18.7751 10.6787 74.7397 -84.8418 -125.629
lowerback 18.1182 -2.72921 -1.0094
upperback -3.05516 -3.53046 3.35644
thorax -13.3762 -1.41056 5.38655
lowerneck 21.4794 -7.88662 -18.2827
upperneck 11.2405 -15.8189 -0.895606
head 1.56492 -9.18775 3.00795
rclavicle 1.66979e-014 -3.18055e-015
rhumerus 43.8159 6.89859 -70.4644
rradius 96.6046
rwrist 13.3156
rhand 1.8828 -26.2131
rfingers 7.12502
rthumb 27.3925 -54.242
lclavicle 1.66979e-014 -3.18055e-015
lhumerus 36.3296 3.69671 65.7607
lradius 98.5385
lwrist -19.0702
lhand 12.041 -0.78179
lfingers 7.12502
lthumb 37.0595 25.2673
rfemur -11.0773 -8.40023 22.7199
rtibia 77.7881
rfoot 1.45883 -6.06321
rtoes 3.95048
lfemur -4.67074 8.20412 -4.79293
ltibia 80.1895
lfoot -0.472994 -2.64976
ltoes 1.55854
413
root -11.9443 18.7017 10.6752 71.8187 -84.5123 -122.164
lowerback 18.0511 -2.82138 -0.721524
upperback -2.96044 -3.5856 3.42749
thorax -13.2342 -1.4637 5.30672
lowerneck 21.1691 -8.24484 -18.0546
upperneck 11.0495 -16.1405 -0.926815
head 1.55321 -9.30708 2.95886
rclavicle -4.05521e-014 1.56642e-013
rhumerus 44.3502 6.71847 -70.4512
rradius 96.4473
rwrist 13.4238
rhand 1.47481 -26.68
rfingers 7.12502
rthumb 27.0022 -54.77
lclavicle -4.05521e-014 1.56642e-013
lhumerus 36.9434 3.86462 65.9433
lradius 98.2468
lwrist -19.0267
lhand 11.481 -1.31308
lfingers 7.12502
lthumb 36.5296 24.8715
rfemur -10.8057 -8.92376 22.8324
rtibia 78.1529
rfoot 1.28414 -5.84385
rtoes 2.42024
lfemur -4.45347 7.82138 -4.40341
ltibia 80.5334
lfoot -1.32245 -2.68156
ltoes 1.8102
414
root -11.8384 18.6349 10.6668 69.4181 -84.7831 -119.135
lowerback 17.9373 -2.36709 -0.620074
upperback -2.80075 -2.96382 3.28547
thorax -13.0489 -1.19445 4.8928
lowerneck 20.0212 -9.04769 -18.3038
upperneck 11.8214 -16.9794 -0.679715
head 2.06779 -9.77594 2.95169
rclavicle 6.36111e-015 -7.95139e-016
rhumerus 44.6059 5.2528 -69.3347
rradius 96.6275
rwrist 13.4889
rhand 1.52689 -26.8433
rfingers 7.12502
rthumb 27.052 -54.9257
lclavicle 6.36111e-015 -7.95139e-016
lhumerus 38.3168 3.23086 67.1918
lradius 97.9625
lwrist -18.2234
lhand 12.4049 -2.87716
lfingers 7.12502
lthumb 37.4036 23.0819
rfemur -10.7031 -9.39341 22.2558
rtibia 78.6735
rfoot 0.8764 -5.55017
rtoes 2.70418
lfemur -4.10814 7.73792 -4.71867
ltibia 80.7449
lfoot -2.27853 -2.75502
ltoes -1.15897
415
root -11.724 18.5669 10.6608 68.3492 -85.2569 -117.382
lowerback 17.971 -2.5696 -1.35423
upperback -2.89468 -3.42128 3.07001
thorax -13.1091 -1.35516 5.20426
lowerneck 19.8469 -9.16877 -18.0192
upperneck 12.2682 -17.0726 -0.890474
head 2.19818 -9.85651 2.82589
rclavicle 1.11319e-014 -2.22639e-014
rhumerus 44.7956 5.8146 -69.7747
rradius 96.8351
rwrist 13.6035
rhand 1.22903 -26.976
rfingers 7.12502
rthumb 26.767 -55.1023
lclavicle 1.11319e-014 -2.22639e-014
lhumerus 38.0943 3.61257 66.2437
lradius 97.963
lwrist -18.8749
lhand 11.814 -2.25446
lfingers 7.12502
lthumb 36.8448 23.85
rfemur -10.8048 -9.65724 21.4886
rtibia 79.3601
rfoot 0.126859 -5.21246
rtoes 3.49092
lfemur -3.76042 7.81837 -5.2272
ltibia 80.9762
lfoot -2.92439 -2.72175
ltoes -1.52894
416
root -11.6059 18.5077 10.6592 65.3538 -85.7012 -113.745
lowerback 17.9352 -2.59808 -1.76442
upperback -2.86225 -3.57558 2.82741
thorax -13.0262 -1.40794 5.20149
lowerneck 20.2153 -9.22541 -17.9254
upperneck 10.973 -17.1695 -0.230237
head 1.79435 -9.77972 3.08293
rclavicle 1.35174e-014 1.51076e-014
rhumerus 45.129 5.69885 -70.1054
rradius 96.6781
rwrist 13.9515
rhand 0.997929 -26.9378
rfingers 7.12502
rthumb 26.5459 -55.0977
lclavicle 1.35174e-014 1.51076e-014
lhumerus 38.4717 3.68209 65.8007
lradius 97.9036
lwrist -18.9448
lhand 11.3011 -1.69259
lfingers 7.12502
lthumb 36.3594 24.5348
rfemur -10.7599 -10.1626 20.5439
rtibia 80.0363
rfoot -0.367911 -4.47335
rtoes 1.38226
lfemur -3.45658 7.71412 -5.72654
ltibia 81.2328
lfoot -3.26228 -2.53083
ltoes -0.748775
